<svg xmlns="http://www.w3.org/2000/svg" viewBox="0 0 1200 700" fill="none">
  <rect width="1200" height="700" rx="16" fill="#0c1222"/>
  <!-- Header -->
  <rect width="1200" height="56" fill="#161e2e"/>
  <rect x="20" y="14" width="28" height="28" rx="8" fill="url(#grad1)"/>
  <text x="58" y="32" fill="#e8ecf4" font-family="Inter,sans-serif" font-size="14" font-weight="700">MindMap Studio</text>
  <text x="58" y="44" fill="#5c6b82" font-family="Inter,sans-serif" font-size="10">Visual mind mapping</text>
  <!-- Toolbar -->
  <rect x="340" y="68" width="520" height="40" rx="16" fill="#161e2e" stroke="#263348" stroke-width="1"/>
  <rect x="352" y="76" width="64" height="24" rx="10" fill="#6366f1"/>
  <text x="372" y="92" fill="#fff" font-family="Inter,sans-serif" font-size="11" font-weight="600">+ Add</text>
  <circle cx="440" cy="88" r="8" fill="none" stroke="#5c6b82" stroke-width="1.5"/>
  <rect x="456" y="82" width="16" height="12" rx="3" fill="none" stroke="#5c6b82" stroke-width="1.5"/>
  <circle cx="492" cy="88" r="8" fill="none" stroke="#5c6b82" stroke-width="1.5"/>
  <!-- Nodes -->
  <rect x="420" y="180" width="160" height="48" rx="12" fill="#161e2e" stroke="#6366f1" stroke-width="2"/>
  <text x="500" y="208" fill="#e8ecf4" font-family="Inter,sans-serif" font-size="13" font-weight="500" text-anchor="middle">Central Idea</text>
  <rect x="180" y="300" width="140" height="44" rx="10" fill="#161e2e" stroke="#263348" stroke-width="1"/>
  <text x="250" y="326" fill="#e8ecf4" font-family="Inter,sans-serif" font-size="12" font-weight="500" text-anchor="middle">Research</text>
  <rect x="480" y="300" width="140" height="44" rx="10" fill="#161e2e" stroke="#263348" stroke-width="1"/>
  <text x="550" y="326" fill="#e8ecf4" font-family="Inter,sans-serif" font-size="12" font-weight="500" text-anchor="middle">Design</text>
  <rect x="780" y="300" width="140" height="44" rx="10" fill="#161e2e" stroke="#263348" stroke-width="1"/>
  <text x="850" y="326" fill="#e8ecf4" font-family="Inter,sans-serif" font-size="12" font-weight="500" text-anchor="middle">Development</text>
  <rect x="80" y="420" width="120" height="40" rx="10" fill="#161e2e" stroke="#263348" stroke-width="1"/>
  <text x="140" y="444" fill="#e8ecf4" font-family="Inter,sans-serif" font-size="11" font-weight="500" text-anchor="middle">Market Analysis</text>
  <rect x="240" y="420" width="120" height="40" rx="10" fill="#161e2e" stroke="#263348" stroke-width="1"/>
  <text x="300" y="444" fill="#e8ecf4" font-family="Inter,sans-serif" font-size="11" font-weight="500" text-anchor="middle">User Research</text>
  <rect x="420" y="420" width="120" height="40" rx="20" fill="#161e2e" stroke="#263348" stroke-width="1"/>
  <text x="480" y="444" fill="#e8ecf4" font-family="Inter,sans-serif" font-size="11" font-weight="500" text-anchor="middle">Wireframes</text>
  <rect x="580" y="420" width="120" height="40" rx="10" fill="#161e2e" stroke="#263348" stroke-width="1"/>
  <text x="640" y="444" fill="#e8ecf4" font-family="Inter,sans-serif" font-size="11" font-weight="500" text-anchor="middle">Mockups</text>
  <rect x="720" y="420" width="120" height="40" rx="10" fill="#161e2e" stroke="#263348" stroke-width="1"/>
  <text x="780" y="444" fill="#e8ecf4" font-family="Inter,sans-serif" font-size="11" font-weight="500" text-anchor="middle">Frontend</text>
  <rect x="880" y="420" width="120" height="40" rx="10" fill="#161e2e" stroke="#263348" stroke-width="1"/>
  <text x="940" y="444" fill="#e8ecf4" font-family="Inter,sans-serif" font-size="11" font-weight="500" text-anchor="middle">Backend</text>
  <!-- Edges -->
  <path d="M500 228 C500 260 250 270 250 300" stroke="#4b5563" stroke-width="1.5" fill="none"/>
  <path d="M500 228 C500 260 550 270 550 300" stroke="#4b5563" stroke-width="1.5" fill="none"/>
  <path d="M500 228 C500 260 850 270 850 300" stroke="#4b5563" stroke-width="1.5" fill="none"/>
  <path d="M250 344 C250 370 140 390 140 420" stroke="#4b5563" stroke-width="1.5" fill="none"/>
  <path d="M250 344 C250 370 300 390 300 420" stroke="#4b5563" stroke-width="1.5" fill="none"/>
  <path d="M550 344 C550 370 480 390 480 420" stroke="#4b5563" stroke-width="1.5" fill="none"/>
  <path d="M550 344 C550 370 640 390 640 420" stroke="#4b5563" stroke-width="1.5" fill="none"/>
  <path d="M850 344 C850 370 780 390 780 420" stroke="#4b5563" stroke-width="1.5" fill="none"/>
  <path d="M850 344 C850 370 940 390 940 420" stroke="#4b5563" stroke-width="1.5" fill="none"/>
  <!-- Shape Panel -->
  <rect x="16" y="200" width="80" height="280" rx="14" fill="#161e2e" stroke="#263348" stroke-width="1"/>
  <text x="56" y="225" fill="#5c6b82" font-family="Inter,sans-serif" font-size="9" font-weight="600" text-anchor="middle" text-transform="uppercase">Shapes</text>
  <rect x="26" y="240" width="60" height="40" rx="8" fill="#1c2638" stroke="#263348" stroke-width="1"/>
  <rect x="36" y="252" width="20" height="16" rx="2" fill="none" stroke="#8896ab" stroke-width="1.5"/>
  <rect x="26" y="290" width="60" height="40" rx="20" fill="#1c2638" stroke="#6366f1" stroke-width="1.5"/>
  <rect x="36" y="302" width="20" height="16" rx="8" fill="none" stroke="#6366f1" stroke-width="1.5"/>
  <circle cx="56" cy="360" r="14" fill="#1c2638" stroke="#263348" stroke-width="1"/>
  <!-- Minimap -->
  <rect x="1060" y="580" width="120" height="80" rx="10" fill="#161e2e" stroke="#263348" stroke-width="1"/>
  <rect x="1070" y="590" width="30" height="15" rx="3" fill="#6366f1" opacity="0.5"/>
  <rect x="1110" y="600" width="25" height="12" rx="3" fill="#263348"/>
  <rect x="1145" y="610" width="25" height="12" rx="3" fill="#263348"/>
  <!-- Grid dots -->
  <g opacity="0.15">
    <circle cx="100" cy="550" r="1" fill="#2a3a52"/><circle cx="130" cy="550" r="1" fill="#2a3a52"/><circle cx="160" cy="550" r="1" fill="#2a3a52"/>
    <circle cx="100" cy="580" r="1" fill="#2a3a52"/><circle cx="130" cy="580" r="1" fill="#2a3a52"/><circle cx="160" cy="580" r="1" fill="#2a3a52"/>
    <circle cx="100" cy="610" r="1" fill="#2a3a52"/><circle cx="130" cy="610" r="1" fill="#2a3a52"/><circle cx="160" cy="610" r="1" fill="#2a3a52"/>
    <circle cx="200" cy="550" r="1" fill="#2a3a52"/><circle cx="230" cy="550" r="1" fill="#2a3a52"/><circle cx="260" cy="550" r="1" fill="#2a3a52"/>
    <circle cx="200" cy="580" r="1" fill="#2a3a52"/><circle cx="230" cy="580" r="1" fill="#2a3a52"/><circle cx="260" cy="580" r="1" fill="#2a3a52"/>
    <circle cx="200" cy="610" r="1" fill="#2a3a52"/><circle cx="230" cy="610" r="1" fill="#2a3a52"/><circle cx="260" cy="610" r="1" fill="#2a3a52"/>
  </g>
  <defs>
    <linearGradient id="grad1" x1="0" y1="0" x2="1" y2="1">
      <stop offset="0%" stop-color="#6366f1"/>
      <stop offset="100%" stop-color="#a855f7"/>
    </linearGradient>
  </defs>
</svg>
